<svg t="1720097421973" class="icon" viewBox="0 0 1024 1024" version="1.1" xmlns="http://www.w3.org/2000/svg" p-id="1800" width="200" height="200"><path d="M484.419758 380.683691L856.514445 482.892824v357.68425l-372.094687-160.26443z" fill="#8E99A3" opacity=".5" p-id="1801"></path><path d="M484.833302 381.033613l-303.923454 84.903883v375.8484l303.923454-162.682075z" fill="#A0AAB5" opacity=".5" p-id="1802"></path><path d="M687.438335 102.622678c-1.399689-35.533023-6.80758-58.023486-16.223672-67.439578a36.201056 36.201056 0 0 0-51.215906 51.215906c9.416092 9.416092 31.906555 14.823983 67.439578 16.223672zM712.219199 123.96794c1.4315 35.533023 6.839391 57.991674 16.223671 67.439578a36.201056 36.201056 0 0 0 51.215906-51.215906c-9.384281-9.416092-31.874744-14.823983-67.439577-16.223672z" fill="#CED8E5" opacity=".4" p-id="1803"></path><path d="M659.149052 96.048218l6.973097-6.973097 51.128543 51.128543-6.973097 6.973097z" fill="#DDE5F2" opacity=".5" p-id="1804"></path><path d="M678.912954 79.623237l6.998447-6.998447 51.120472 51.120473-6.998446 6.998446z" fill="#DDE5F2" opacity=".5" p-id="1805"></path><path d="M710.724076 72.115812a31.811121 31.811121 0 1 0 63.622243 0 31.811121 31.811121 0 1 0-63.622243 0Z" fill="#8B9AA8" opacity=".5" p-id="1806"></path><path d="M180.909848 466.60553l372.126499 118.051071v416.884747L180.909848 841.276918z" fill="#DAE2EC" opacity=".5" p-id="1807"></path><path d="M858.391302 482.447468l-310.635601 102.209133v416.884747l310.635601-160.26443z" fill="#C5D0D9" opacity=".5" p-id="1808"></path><path d="M857.50059 482.192979l120.086984 160.646164-318.683815 125.590307-110.06648-184.568127z" fill="#DAE2EC" opacity=".5" p-id="1809"></path><path d="M180.464492 465.714818l-104.022367 162.23672 366.591364 140.477912 107.108046-184.790804z" fill="#C5D0D9" opacity=".5" p-id="1810"></path></svg>