<svg t="1720164671721" class="icon" viewBox="0 0 1170 1024" version="1.1" xmlns="http://www.w3.org/2000/svg" p-id="23575" width="200" height="200"><path d="M1117.525333 584.996571A292.668952 292.668952 0 0 1 828.952381 828.952381H341.333333a292.668952 292.668952 0 0 1-288.572952-243.95581A48.761905 48.761905 0 0 1 0 536.380952V341.333333a48.761905 48.761905 0 0 1 48.761905-48.761904 292.571429 292.571429 0 0 1 292.571428-292.571429h487.619048a292.571429 292.571429 0 0 1 292.571429 292.571429 48.761905 48.761905 0 0 1 48.761904 48.761904v195.047619a48.761905 48.761905 0 0 1-52.760381 48.615619zM341.333333 121.904762A170.666667 170.666667 0 0 0 170.666667 292.571429v243.809523A170.666667 170.666667 0 0 0 341.333333 707.047619h487.619048a170.666667 170.666667 0 0 0 170.666667-170.666667V292.571429A170.666667 170.666667 0 0 0 828.952381 121.904762H341.333333zM414.47619 243.809524A73.142857 73.142857 0 0 1 487.619048 316.952381v134.436571a73.142857 73.142857 0 1 1-146.285715 0V316.952381A73.142857 73.142857 0 0 1 414.47619 243.809524z m341.333334 0A73.142857 73.142857 0 0 1 828.952381 316.952381v134.436571a73.142857 73.142857 0 1 1-146.285714 0V316.952381A73.142857 73.142857 0 0 1 755.809524 243.809524zM438.857143 1024a146.285714 146.285714 0 0 1-146.285714-146.285714h585.142857a146.285714 146.285714 0 0 1-146.285715 146.285714H438.857143z" fill="#4093FF" p-id="23576"></path></svg>